<svg xmlns="http://www.w3.org/2000/svg" width="35" height="35" viewBox="0 0 35 35"><defs><style>.a{fill:#0e132b;}</style></defs><g transform="translate(0.004 0.011)"><g transform="translate(-0.004 -0.011)"><path class="a" d="M34.772,5.829a15.584,15.584,0,0,0-4.836-3.751A22.624,22.624,0,0,0,19.041.032,24.851,24.851,0,0,0,15.56.5,14.157,14.157,0,0,0,7.207,5.364a17.608,17.608,0,0,0-2.989,5.449c-.08.227-.176.446-.264.669l-.15-.051a4.224,4.224,0,0,1,.032-.507A19.267,19.267,0,0,1,6.116,4.529C6.685,3.548,7.288,2.59,7.872,1.62c.1-.162.167-.341.3-.606-.363.074-.615.12-.857.182A19.407,19.407,0,0,0,1.034,4.128,1.521,1.521,0,0,0,.358,5.215a20.386,20.386,0,0,0-.134,6.833C1.409,19.424,5.3,24.706,11.8,27.886a18.27,18.27,0,0,0,8.529,1.752c.213,0,.426.023.637.035-.006.1,0,.141-.01.151-.1.078-.206.156-.316.224a10.522,10.522,0,0,1-6.651,1.5c-.739-.061-1.476-.138-2.346-.217a2.878,2.878,0,0,0,.259.3,19.243,19.243,0,0,0,7.508,3.331,1.184,1.184,0,0,0,.7-.047,1.256,1.256,0,0,0,.309-.175c.744-.568,1.524-1.087,2.247-1.678a24.836,24.836,0,0,0,8.363-12.341,12.14,12.14,0,0,0,.651-4.471,19.834,19.834,0,0,0-4.25-11.009c-.092-.113-.176-.233-.312-.418A20.473,20.473,0,0,1,31.31,8.484,17.33,17.33,0,0,1,33.8,13.641c.123-.227.184-.313.221-.408.842-2.2.8-4.535.973-6.837a.844.844,0,0,0-.224-.567ZM22.835,20.417a7.879,7.879,0,0,1-.775.66,7.375,7.375,0,0,1-9.732-.826,8.069,8.069,0,0,1-.887-10.028C13.4,7.283,17.3,5.979,20.185,7.363c-.2.151-.36.287-.533.413a3.406,3.406,0,0,0-1.361,3.768,3.359,3.359,0,0,0,4.366,2.426,3.463,3.463,0,0,0,1.609-1.257c.153-.2.287-.422.445-.658A7.809,7.809,0,0,1,22.835,20.417Z" transform="translate(0.004 0.011)"/></g></g></svg>